<svg width="32" height="32" viewBox="0 0 32 32" xmlns="http://www.w3.org/2000/svg">
  <defs>
    <linearGradient id="bg" x1="0%" y1="0%" x2="100%" y2="100%">
      <stop offset="0%" style="stop-color:#1a1a2e"/>
      <stop offset="100%" style="stop-color:#0f3460"/>
    </linearGradient>
  </defs>
  
  <!-- Background circle -->
  <circle cx="16" cy="16" r="15" fill="url(#bg)" stroke="#ffd700" stroke-width="1"/>
  
  <!-- Wheel segments -->
  <g transform="translate(16, 16)">
    <path d="M 0 0 L 0 -11 A 11 11 0 0 1 9.53 -5.5 Z" fill="#E53935"/>
    <path d="M 0 0 L 9.53 -5.5 A 11 11 0 0 1 9.53 5.5 Z" fill="#1E88E5"/>
    <path d="M 0 0 L 9.53 5.5 A 11 11 0 0 1 0 11 Z" fill="#43A047"/>
    <path d="M 0 0 L 0 11 A 11 11 0 0 1 -9.53 5.5 Z" fill="#8E24AA"/>
    <path d="M 0 0 L -9.53 5.5 A 11 11 0 0 1 -9.53 -5.5 Z" fill="#FB8C00"/>
    <path d="M 0 0 L -9.53 -5.5 A 11 11 0 0 1 0 -11 Z" fill="#00ACC1"/>
    
    <!-- Center -->
    <circle cx="0" cy="0" r="3" fill="#ffd700"/>
  </g>
  
  <!-- Pointer -->
  <polygon points="16,2 14,0 18,0" fill="#ffd700"/>
</svg>
