<svg xmlns="http://www.w3.org/2000/svg" xmlns:xlink="http://www.w3.org/1999/xlink" aria-hidden="true" role="img" class="iconify iconify--logos" width="35.93" height="32" preserveAspectRatio="xMidYMid meet" viewBox="0 0 256 228"><path fill="#00D8FF" d="M210.483 73.824a171.49 171.49 0 0 0-8.24-2.597c.465-1.9.893-3.777 1.273-5.621c6.238-30.281 2.16-54.676-11.769-62.708c-13.355-7.7-35.196.329-57.254 19.526a171.23 171.23 0 0 0-6.375 5.848a155.866 155.866 0 0 0-4.241-3.917C100.759 3.829 77.587-4.822 63.673 3.233C50.33 10.957 46.379 33.89 51.995 62.588a170.974 170.974 0 0 0 1.892 8.48c-3.28.932-6.445 1.924-9.474 2.98C17.309 83.498 0 98.307 0 113.668c0 15.865 18.582 31.778 46.812 41.427a145.52 145.52 0 0 0 6.921 2.165a167.467 167.467 0 0 0-2.01 9.138c-5.354 28.2-1.173 50.591 12.134 58.266c13.744 7.926 36.812-.22 59.273-19.855a145.567 145.567 0 0 0 5.342-4.923a168.064 168.064 0 0 0 6.92 6.314c21.758 18.722 43.246 26.282 56.54 18.586c13.731-7.949 18.194-32.003 12.4-61.268a145.016 145.016 0 0 0-1.535-6.842c1.62-.48 3.21-.985 4.76-1.52c29.151-10.09 48.44-25.894 48.44-42.508c0-15.685-17.868-30.878-45.996-40.768Zm-6.711 66.768a130.07 130.07 0 0 1-3.885 1.238a203.318 203.318 0 0 0-6.116-18.434a202.721 202.721 0 0 0 5.695-17.586a155.35 155.35 0 0 1 6.889 2.12c25.534 8.972 40.74 21.963 40.74 31.738c0 10.724-16.548 24.62-43.323 33.924Zm-12.49 56.606c-3.98 19.78-11.34 32.21-18.195 36.18c-7.456 4.318-20.917-.834-37.132-14.793a151.366 151.366 0 0 1-5.992-5.466a204.37 204.37 0 0 0 11.988-14.438a200.613 200.613 0 0 0 18.503-3.092c1.026 4.586 1.785 8.868 2.142 12.763c.58 6.32-.25 10.984-1.314 11.846Zm-67.512-62.545l-10.604 18.47a198.072 198.072 0 0 1-12.16-3.152a195.154 195.154 0 0 1 4.707-10.968a232.864 232.864 0 0 0 18.057 5.65Zm-30.88-11.474c-6.65-3.944-12.932-8.268-18.726-12.933a196.924 196.924 0 0 1 8.022-3.72a206.418 206.418 0 0 0 6.037 10.957a219.98 219.98 0 0 0 4.667 5.696Zm2.104-35.014a209.368 209.368 0 0 0-5.853 10.504a203.2 203.2 0 0 1-7.8-3.553a194.92 194.92 0 0 1 17.653-15.753c3.098 2.806 6.338 5.691 9.704 8.634a221.05 221.05 0 0 0-13.704 .168Zm41.926-24.69a221.455 221.455 0 0 0-17.94 5.527a208.156 208.156 0 0 1-6.243-11.224a190.628 190.628 0 0 1 12.082-3.028a230.93 230.93 0 0 0 6.101 8.725Zm29.52 1.587a195.44 195.44 0 0 1 12.055 3.016a197.044 197.044 0 0 1-6.2 11.14a217.95 217.95 0 0 0-5.855-14.156Zm-11.9 37.89a248.037 248.037 0 0 0 7.82 14.206a245.756 245.756 0 0 0-7.768 14.168a247.87 247.87 0 0 1-16.224-.095a248.95 248.95 0 0 1-7.775-14.145a248.33 248.33 0 0 1 7.72-14.238c5.379-.089 10.814-.045 16.227.104Zm29.384 15.063a202.398 202.398 0 0 0-5.59 17.03a205.092 205.092 0 0 0-13.68 3.056a218.996 218.996 0 0 0 5.828-9.86a219.506 219.506 0 0 0 13.442-10.226Zm-43.043 36.706a200.638 200.638 0 0 0 12.038 14.288a191.6 191.6 0 0 1-17.87 5.4c2.13-4.42 4.16-9.05 5.832-13.688Zm67.71-84.87c5.95 28.748 1.912 50.584-10.867 57.97c-6.859 3.966-16.126 3.013-26.87-2.008a154.855 154.855 0 0 1-5.09-2.678a203.65 203.65 0 0 0 6.074-14.37a201.71 201.71 0 0 0 17.576-14.016a165.168 165.168 0 0 1 4.927 5.052c.77.85 1.503 1.686 2.217 2.502a147.093 147.093 0 0 1-4.46 4.206l.002.002c-1.35 1.212-2.777 2.41-4.253 3.58a195.61 195.61 0 0 1-8.478 6.052a177.21 177.21 0 0 0-3.14-5.582l-.001-.001a215.01 215.01 0 0 1-2.833-5.352a229.855 229.855 0 0 1 6.04-10.514a199.558 199.558 0 0 1 8.296 3.732c-.91 1.814-1.91 3.66-2.996 5.528l6.065 3.51c2.556-4.402 4.78-8.724 6.654-12.914c9.308 4.864 16.007 10.266 19.296 15.636c3.67 5.984 4.127 12.012 1.54 17.592c-6.342 13.694-30.558 19.77-56.712 15.11a168.51 168.51 0 0 1-4.238-.874c.93-3.052 1.77-6.195 2.497-9.416a205.635 205.635 0 0 0 18.546-3.126c2.097-4.24 4.028-8.65 5.754-13.17a199.638 199.638 0 0 0-12.053-14.32a233.72 233.72 0 0 0 18.02-5.583l-2.492-6.6a227.093 227.093 0 0 1-19.456 6.011a252.36 252.36 0 0 0-8.175-9.286l-4.902 5.064c3.1 2.998 6.036 6.093 8.758 9.195a246.21 246.21 0 0 1-16.18.108c-.065 2.3-.09 4.61-.07 6.917a255.068 255.068 0 0 0 18.084-.018a249.26 249.26 0 0 1 7.772 14.167a248.39 248.39 0 0 1-7.824 14.196a257.93 257.93 0 0 1-18.112-.068c.013 2.306.07 4.614.173 6.914a249.21 249.21 0 0 0 16.217.104c-2.737 3.12-5.69 6.232-8.808 9.24l4.905 5.06c3.358-3.244 6.519-6.526 9.446-9.807a233.12 233.12 0 0 0 19.476 6.057l2.492-6.6a226.98 226.98 0 0 1-18.04-5.626a200.13 200.13 0 0 0 12.038-14.263a202.972 202.972 0 0 0 18.564 3.156c.72 3.2 1.35 6.32 1.885 9.352c-10.55 6.09-22.906 9.426-36.122 9.426c-38.728 0-70.108-31.38-70.108-70.108c0-38.726 31.38-70.104 70.108-70.104c38.722 0 70.104 31.378 70.104 70.104c0 10.792-2.456 21.016-6.824 30.15Z"/></svg>
